<mxfile host="Electron" modified="2023-12-17T20:38:21.424Z" agent="Mozilla/5.0 (Windows NT 10.0; Win64; x64) AppleWebKit/537.36 (KHTML, like Gecko) draw.io/22.1.2 Chrome/114.0.5735.289 Electron/25.9.4 Safari/537.36" etag="96zOWLEdPKbW3cfUcJwB" version="22.1.2" type="device" pages="2">
  <diagram name="Konteksni dijagram" id="74e2e168-ea6b-b213-b513-2b3c1d86103e">
    <mxGraphModel dx="890" dy="1044" grid="1" gridSize="10" guides="1" tooltips="1" connect="1" arrows="1" fold="1" page="1" pageScale="1" pageWidth="1100" pageHeight="850" background="none" math="0" shadow="0">
      <root>
        <mxCell id="0" />
        <mxCell id="1" parent="0" />
        <mxCell id="KGDTaamNxHQCsi8VLHN5-1" value="" style="endArrow=classic;html=1;rounded=0;entryX=-0.014;entryY=0.096;entryDx=0;entryDy=0;entryPerimeter=0;" edge="1" parent="1">
          <mxGeometry width="50" height="50" relative="1" as="geometry">
            <mxPoint x="200" y="322" as="sourcePoint" />
            <mxPoint x="409.99999999999994" y="322.4799999999999" as="targetPoint" />
          </mxGeometry>
        </mxCell>
        <mxCell id="KGDTaamNxHQCsi8VLHN5-2" value="" style="endArrow=classic;html=1;rounded=0;entryX=-0.014;entryY=0.096;entryDx=0;entryDy=0;entryPerimeter=0;" edge="1" parent="1">
          <mxGeometry width="50" height="50" relative="1" as="geometry">
            <mxPoint x="200" y="360" as="sourcePoint" />
            <mxPoint x="409.99999999999994" y="360.4799999999999" as="targetPoint" />
          </mxGeometry>
        </mxCell>
        <mxCell id="KGDTaamNxHQCsi8VLHN5-3" value="" style="endArrow=classic;html=1;rounded=0;entryX=-0.014;entryY=0.096;entryDx=0;entryDy=0;entryPerimeter=0;" edge="1" parent="1">
          <mxGeometry width="50" height="50" relative="1" as="geometry">
            <mxPoint x="200" y="400" as="sourcePoint" />
            <mxPoint x="409.99999999999994" y="400.4799999999999" as="targetPoint" />
          </mxGeometry>
        </mxCell>
        <mxCell id="KGDTaamNxHQCsi8VLHN5-4" value="" style="endArrow=classic;html=1;rounded=0;entryX=-0.014;entryY=0.096;entryDx=0;entryDy=0;entryPerimeter=0;" edge="1" parent="1">
          <mxGeometry width="50" height="50" relative="1" as="geometry">
            <mxPoint x="200" y="430" as="sourcePoint" />
            <mxPoint x="409.99999999999994" y="430.4799999999999" as="targetPoint" />
          </mxGeometry>
        </mxCell>
        <mxCell id="KGDTaamNxHQCsi8VLHN5-5" value="Detalji o robi" style="text;html=1;align=center;verticalAlign=middle;resizable=0;points=[];autosize=1;strokeColor=none;fillColor=none;" vertex="1" parent="1">
          <mxGeometry x="250" y="290" width="90" height="30" as="geometry" />
        </mxCell>
        <mxCell id="KGDTaamNxHQCsi8VLHN5-6" value="Adrese i lokacije" style="text;html=1;align=center;verticalAlign=middle;resizable=0;points=[];autosize=1;strokeColor=none;fillColor=none;" vertex="1" parent="1">
          <mxGeometry x="240" y="375" width="110" height="30" as="geometry" />
        </mxCell>
        <mxCell id="KGDTaamNxHQCsi8VLHN5-7" value="Dokumentacija" style="text;html=1;align=center;verticalAlign=middle;resizable=0;points=[];autosize=1;strokeColor=none;fillColor=none;" vertex="1" parent="1">
          <mxGeometry x="245" y="330" width="100" height="30" as="geometry" />
        </mxCell>
        <mxCell id="KGDTaamNxHQCsi8VLHN5-8" value="Informacije o vozilima" style="text;html=1;align=center;verticalAlign=middle;resizable=0;points=[];autosize=1;strokeColor=none;fillColor=none;" vertex="1" parent="1">
          <mxGeometry x="225" y="405" width="140" height="30" as="geometry" />
        </mxCell>
        <mxCell id="KGDTaamNxHQCsi8VLHN5-9" value="" style="endArrow=classic;html=1;rounded=0;entryX=-0.014;entryY=0.096;entryDx=0;entryDy=0;entryPerimeter=0;" edge="1" parent="1">
          <mxGeometry width="50" height="50" relative="1" as="geometry">
            <mxPoint x="690" y="340" as="sourcePoint" />
            <mxPoint x="900" y="340.4799999999999" as="targetPoint" />
          </mxGeometry>
        </mxCell>
        <mxCell id="KGDTaamNxHQCsi8VLHN5-10" value="" style="endArrow=classic;html=1;rounded=0;entryX=-0.014;entryY=0.096;entryDx=0;entryDy=0;entryPerimeter=0;" edge="1" parent="1">
          <mxGeometry width="50" height="50" relative="1" as="geometry">
            <mxPoint x="690" y="380" as="sourcePoint" />
            <mxPoint x="900" y="380.4799999999999" as="targetPoint" />
          </mxGeometry>
        </mxCell>
        <mxCell id="KGDTaamNxHQCsi8VLHN5-11" value="" style="endArrow=classic;html=1;rounded=0;entryX=-0.014;entryY=0.096;entryDx=0;entryDy=0;entryPerimeter=0;" edge="1" parent="1">
          <mxGeometry width="50" height="50" relative="1" as="geometry">
            <mxPoint x="690" y="420" as="sourcePoint" />
            <mxPoint x="900" y="420.4799999999999" as="targetPoint" />
          </mxGeometry>
        </mxCell>
        <mxCell id="KGDTaamNxHQCsi8VLHN5-12" value="Potvrda o isporuci" style="text;html=1;align=center;verticalAlign=middle;resizable=0;points=[];autosize=1;strokeColor=none;fillColor=none;" vertex="1" parent="1">
          <mxGeometry x="730" y="310" width="120" height="30" as="geometry" />
        </mxCell>
        <mxCell id="KGDTaamNxHQCsi8VLHN5-13" value="Status pošiljke" style="text;html=1;align=center;verticalAlign=middle;resizable=0;points=[];autosize=1;strokeColor=none;fillColor=none;" vertex="1" parent="1">
          <mxGeometry x="740" y="350" width="100" height="30" as="geometry" />
        </mxCell>
        <mxCell id="KGDTaamNxHQCsi8VLHN5-14" value="Fakture za usluge špedicije" style="text;html=1;align=center;verticalAlign=middle;resizable=0;points=[];autosize=1;strokeColor=none;fillColor=none;" vertex="1" parent="1">
          <mxGeometry x="705" y="395" width="170" height="30" as="geometry" />
        </mxCell>
        <mxCell id="KGDTaamNxHQCsi8VLHN5-15" value="" style="endArrow=classic;html=1;rounded=0;entryX=0.107;entryY=1.038;entryDx=0;entryDy=0;entryPerimeter=0;" edge="1" parent="1">
          <mxGeometry width="50" height="50" relative="1" as="geometry">
            <mxPoint x="460" y="540" as="sourcePoint" />
            <mxPoint x="459.96000000000004" y="435.0000000000003" as="targetPoint" />
          </mxGeometry>
        </mxCell>
        <mxCell id="KGDTaamNxHQCsi8VLHN5-16" value="&lt;font style=&quot;font-size: 24px;&quot;&gt;ŠPEDICIJA&lt;/font&gt;" style="rounded=0;whiteSpace=wrap;html=1;" vertex="1" parent="1">
          <mxGeometry x="410" y="305" width="280" height="130" as="geometry" />
        </mxCell>
        <mxCell id="KGDTaamNxHQCsi8VLHN5-17" value="Ljudski resursi" style="text;html=1;align=center;verticalAlign=middle;resizable=0;points=[];autosize=1;strokeColor=none;fillColor=none;" vertex="1" parent="1">
          <mxGeometry x="450" y="490" width="100" height="30" as="geometry" />
        </mxCell>
        <mxCell id="KGDTaamNxHQCsi8VLHN5-18" value="Oprema" style="text;html=1;align=center;verticalAlign=middle;resizable=0;points=[];autosize=1;strokeColor=none;fillColor=none;" vertex="1" parent="1">
          <mxGeometry x="540" y="490" width="70" height="30" as="geometry" />
        </mxCell>
        <mxCell id="KGDTaamNxHQCsi8VLHN5-19" value="" style="endArrow=classic;html=1;rounded=0;entryX=0.679;entryY=1.038;entryDx=0;entryDy=0;entryPerimeter=0;" edge="1" parent="1">
          <mxGeometry width="50" height="50" relative="1" as="geometry">
            <mxPoint x="550" y="540" as="sourcePoint" />
            <mxPoint x="550.12" y="434.99999999999994" as="targetPoint" />
          </mxGeometry>
        </mxCell>
        <mxCell id="KGDTaamNxHQCsi8VLHN5-20" value="" style="endArrow=classic;html=1;rounded=0;entryX=0.214;entryY=0;entryDx=0;entryDy=0;entryPerimeter=0;" edge="1" parent="1">
          <mxGeometry width="50" height="50" relative="1" as="geometry">
            <mxPoint x="460.08" y="180" as="sourcePoint" />
            <mxPoint x="460.00000000000006" y="305.0000000000001" as="targetPoint" />
          </mxGeometry>
        </mxCell>
        <mxCell id="KGDTaamNxHQCsi8VLHN5-21" value="ZOBS" style="text;html=1;align=center;verticalAlign=middle;resizable=0;points=[];autosize=1;strokeColor=none;fillColor=none;" vertex="1" parent="1">
          <mxGeometry x="450" y="228" width="60" height="30" as="geometry" />
        </mxCell>
        <mxCell id="KGDTaamNxHQCsi8VLHN5-22" value="" style="endArrow=classic;html=1;rounded=0;entryX=0.679;entryY=0.038;entryDx=0;entryDy=0;entryPerimeter=0;" edge="1" parent="1">
          <mxGeometry width="50" height="50" relative="1" as="geometry">
            <mxPoint x="520" y="180" as="sourcePoint" />
            <mxPoint x="520.1199999999999" y="305.0000000000002" as="targetPoint" />
          </mxGeometry>
        </mxCell>
        <mxCell id="KGDTaamNxHQCsi8VLHN5-23" value="Standardi" style="text;html=1;align=center;verticalAlign=middle;resizable=0;points=[];autosize=1;strokeColor=none;fillColor=none;" vertex="1" parent="1">
          <mxGeometry x="515" y="228" width="70" height="30" as="geometry" />
        </mxCell>
        <mxCell id="KGDTaamNxHQCsi8VLHN5-24" value="" style="endArrow=classic;html=1;rounded=0;entryX=0.679;entryY=0.038;entryDx=0;entryDy=0;entryPerimeter=0;" edge="1" parent="1">
          <mxGeometry width="50" height="50" relative="1" as="geometry">
            <mxPoint x="590" y="180.5" as="sourcePoint" />
            <mxPoint x="590.1199999999999" y="305.5000000000002" as="targetPoint" />
          </mxGeometry>
        </mxCell>
        <mxCell id="KGDTaamNxHQCsi8VLHN5-25" value="Zakon o radu" style="text;html=1;align=center;verticalAlign=middle;resizable=0;points=[];autosize=1;strokeColor=none;fillColor=none;" vertex="1" parent="1">
          <mxGeometry x="585" y="228" width="90" height="30" as="geometry" />
        </mxCell>
        <mxCell id="KGDTaamNxHQCsi8VLHN5-26" value="" style="endArrow=classic;html=1;rounded=0;entryX=0.818;entryY=0.995;entryDx=0;entryDy=0;entryPerimeter=0;" edge="1" parent="1">
          <mxGeometry width="50" height="50" relative="1" as="geometry">
            <mxPoint x="620.96" y="540.65" as="sourcePoint" />
            <mxPoint x="620" y="435" as="targetPoint" />
          </mxGeometry>
        </mxCell>
        <mxCell id="KGDTaamNxHQCsi8VLHN5-27" value="Prevozna sredstva" style="text;html=1;align=center;verticalAlign=middle;resizable=0;points=[];autosize=1;strokeColor=none;fillColor=none;" vertex="1" parent="1">
          <mxGeometry x="620" y="490" width="120" height="30" as="geometry" />
        </mxCell>
      </root>
    </mxGraphModel>
  </diagram>
  <diagram id="e_36fmQyAh_hr5WE5ald" name="Dijagram dekompozicije">
    <mxGraphModel dx="1599" dy="879" grid="1" gridSize="10" guides="1" tooltips="1" connect="1" arrows="1" fold="1" page="1" pageScale="1" pageWidth="850" pageHeight="1100" math="0" shadow="0">
      <root>
        <mxCell id="0" />
        <mxCell id="1" parent="0" />
        <mxCell id="2QGlYhqfYjrcrI1Q35cm-6" style="edgeStyle=orthogonalEdgeStyle;rounded=0;orthogonalLoop=1;jettySize=auto;html=1;entryX=0;entryY=0.25;entryDx=0;entryDy=0;" edge="1" parent="1" source="-A0RKhvLP23Imo5xxXr9-1" target="-A0RKhvLP23Imo5xxXr9-3">
          <mxGeometry relative="1" as="geometry">
            <Array as="points">
              <mxPoint x="260" y="270" />
              <mxPoint x="260" y="340" />
            </Array>
          </mxGeometry>
        </mxCell>
        <mxCell id="2QGlYhqfYjrcrI1Q35cm-8" style="edgeStyle=orthogonalEdgeStyle;rounded=0;orthogonalLoop=1;jettySize=auto;html=1;exitX=1;exitY=0.25;exitDx=0;exitDy=0;" edge="1" parent="1" source="-A0RKhvLP23Imo5xxXr9-1">
          <mxGeometry relative="1" as="geometry">
            <mxPoint x="840" y="220" as="targetPoint" />
          </mxGeometry>
        </mxCell>
        <mxCell id="-A0RKhvLP23Imo5xxXr9-1" value="&lt;span style=&quot;font-size: 14px;&quot;&gt;Prikupljanje &lt;br&gt;zahtev za&lt;br&gt;transport&lt;br&gt;&lt;/span&gt;" style="rounded=0;whiteSpace=wrap;html=1;" vertex="1" parent="1">
          <mxGeometry x="120" y="200" width="120" height="80" as="geometry" />
        </mxCell>
        <mxCell id="-A0RKhvLP23Imo5xxXr9-3" value="&lt;font style=&quot;font-size: 14px;&quot;&gt;Transport robe&lt;/font&gt;" style="rounded=0;whiteSpace=wrap;html=1;" vertex="1" parent="1">
          <mxGeometry x="280" y="320" width="120" height="80" as="geometry" />
        </mxCell>
        <mxCell id="-A0RKhvLP23Imo5xxXr9-4" value="&lt;span style=&quot;font-size: 14px;&quot;&gt;Isporuka robe&lt;br&gt;i naplata potraživanja&lt;br&gt;&lt;/span&gt;" style="rounded=0;whiteSpace=wrap;html=1;" vertex="1" parent="1">
          <mxGeometry x="600" y="560" width="120" height="80" as="geometry" />
        </mxCell>
        <mxCell id="-A0RKhvLP23Imo5xxXr9-5" value="&lt;span style=&quot;font-size: 14px;&quot;&gt;Vozač&lt;/span&gt;" style="rounded=0;whiteSpace=wrap;html=1;" vertex="1" parent="1">
          <mxGeometry x="440" y="440" width="120" height="80" as="geometry" />
        </mxCell>
        <mxCell id="-A0RKhvLP23Imo5xxXr9-6" value="" style="endArrow=classic;html=1;rounded=0;entryX=-0.006;entryY=0.197;entryDx=0;entryDy=0;entryPerimeter=0;" edge="1" parent="1" target="-A0RKhvLP23Imo5xxXr9-1">
          <mxGeometry width="50" height="50" relative="1" as="geometry">
            <mxPoint y="216" as="sourcePoint" />
            <mxPoint x="190" y="230" as="targetPoint" />
          </mxGeometry>
        </mxCell>
        <mxCell id="-A0RKhvLP23Imo5xxXr9-7" value="" style="endArrow=classic;html=1;rounded=0;entryX=-0.006;entryY=0.197;entryDx=0;entryDy=0;entryPerimeter=0;" edge="1" parent="1">
          <mxGeometry width="50" height="50" relative="1" as="geometry">
            <mxPoint y="250" as="sourcePoint" />
            <mxPoint x="119" y="250" as="targetPoint" />
          </mxGeometry>
        </mxCell>
        <mxCell id="-A0RKhvLP23Imo5xxXr9-8" value="" style="endArrow=classic;html=1;rounded=0;entryX=-0.006;entryY=0.197;entryDx=0;entryDy=0;entryPerimeter=0;" edge="1" parent="1">
          <mxGeometry width="50" height="50" relative="1" as="geometry">
            <mxPoint x="-52.285714285714285" y="280" as="sourcePoint" />
            <mxPoint x="120" y="280" as="targetPoint" />
          </mxGeometry>
        </mxCell>
        <mxCell id="-A0RKhvLP23Imo5xxXr9-9" value="Zahtevi klijenta" style="text;html=1;align=center;verticalAlign=middle;resizable=0;points=[];autosize=1;strokeColor=none;fillColor=none;" vertex="1" parent="1">
          <mxGeometry x="5" y="188" width="100" height="30" as="geometry" />
        </mxCell>
        <mxCell id="-A0RKhvLP23Imo5xxXr9-10" value="Podaci o klijentu" style="text;html=1;align=center;verticalAlign=middle;resizable=0;points=[];autosize=1;strokeColor=none;fillColor=none;" vertex="1" parent="1">
          <mxGeometry y="225" width="110" height="30" as="geometry" />
        </mxCell>
        <mxCell id="2QGlYhqfYjrcrI1Q35cm-1" value="Adresa preuzimanja i isporuke" style="text;html=1;align=center;verticalAlign=middle;resizable=0;points=[];autosize=1;strokeColor=none;fillColor=none;" vertex="1" parent="1">
          <mxGeometry x="-60" y="250" width="180" height="30" as="geometry" />
        </mxCell>
        <mxCell id="2QGlYhqfYjrcrI1Q35cm-2" value="Zakonska regulativa" style="text;html=1;strokeColor=none;fillColor=none;align=center;verticalAlign=middle;whiteSpace=wrap;rounded=0;" vertex="1" parent="1">
          <mxGeometry x="200" y="120" width="60" height="30" as="geometry" />
        </mxCell>
        <mxCell id="2QGlYhqfYjrcrI1Q35cm-3" value="" style="endArrow=classic;html=1;rounded=0;entryX=0.629;entryY=0.004;entryDx=0;entryDy=0;entryPerimeter=0;" edge="1" parent="1">
          <mxGeometry width="50" height="50" relative="1" as="geometry">
            <mxPoint x="200" y="119.68" as="sourcePoint" />
            <mxPoint x="200.48000000000002" y="200" as="targetPoint" />
            <Array as="points">
              <mxPoint x="200" y="159.68" />
            </Array>
          </mxGeometry>
        </mxCell>
        <mxCell id="2QGlYhqfYjrcrI1Q35cm-4" value="" style="endArrow=none;html=1;rounded=0;" edge="1" parent="1">
          <mxGeometry width="50" height="50" relative="1" as="geometry">
            <mxPoint x="690" y="160" as="sourcePoint" />
            <mxPoint x="200" y="160" as="targetPoint" />
          </mxGeometry>
        </mxCell>
        <mxCell id="2QGlYhqfYjrcrI1Q35cm-5" value="" style="endArrow=classic;html=1;rounded=0;entryX=0.75;entryY=0;entryDx=0;entryDy=0;" edge="1" parent="1" target="-A0RKhvLP23Imo5xxXr9-3">
          <mxGeometry width="50" height="50" relative="1" as="geometry">
            <mxPoint x="370" y="160" as="sourcePoint" />
            <mxPoint x="440" y="350" as="targetPoint" />
          </mxGeometry>
        </mxCell>
        <mxCell id="2QGlYhqfYjrcrI1Q35cm-9" value="Detalji zahteva" style="text;html=1;align=center;verticalAlign=middle;resizable=0;points=[];autosize=1;strokeColor=none;fillColor=none;" vertex="1" parent="1">
          <mxGeometry x="240" y="240" width="100" height="30" as="geometry" />
        </mxCell>
        <mxCell id="2QGlYhqfYjrcrI1Q35cm-12" value="" style="endArrow=classic;html=1;rounded=0;entryX=0.342;entryY=-0.037;entryDx=0;entryDy=0;entryPerimeter=0;" edge="1" parent="1">
          <mxGeometry width="50" height="50" relative="1" as="geometry">
            <mxPoint x="690" y="160" as="sourcePoint" />
            <mxPoint x="691.04" y="558.52" as="targetPoint" />
          </mxGeometry>
        </mxCell>
        <mxCell id="2QGlYhqfYjrcrI1Q35cm-13" value="" style="endArrow=classic;html=1;rounded=0;entryX=0.342;entryY=0;entryDx=0;entryDy=0;entryPerimeter=0;" edge="1" parent="1" target="-A0RKhvLP23Imo5xxXr9-5">
          <mxGeometry width="50" height="50" relative="1" as="geometry">
            <mxPoint x="480" y="160" as="sourcePoint" />
            <mxPoint x="560" y="350" as="targetPoint" />
          </mxGeometry>
        </mxCell>
        <mxCell id="2QGlYhqfYjrcrI1Q35cm-15" value="ZOBS&lt;br&gt;&amp;nbsp;(Zakon o bezb. u saobrać.)" style="text;html=1;align=center;verticalAlign=middle;resizable=0;points=[];autosize=1;strokeColor=none;fillColor=none;" vertex="1" parent="1">
          <mxGeometry x="330" y="90" width="170" height="40" as="geometry" />
        </mxCell>
        <mxCell id="2QGlYhqfYjrcrI1Q35cm-16" value="Potvrda za transport" style="text;html=1;align=center;verticalAlign=middle;resizable=0;points=[];autosize=1;strokeColor=none;fillColor=none;" vertex="1" parent="1">
          <mxGeometry x="700" y="195" width="130" height="30" as="geometry" />
        </mxCell>
        <mxCell id="2QGlYhqfYjrcrI1Q35cm-17" value="" style="endArrow=classic;html=1;rounded=0;" edge="1" parent="1">
          <mxGeometry width="50" height="50" relative="1" as="geometry">
            <mxPoint x="160" y="720" as="sourcePoint" />
            <mxPoint x="160" y="280" as="targetPoint" />
          </mxGeometry>
        </mxCell>
        <mxCell id="2QGlYhqfYjrcrI1Q35cm-18" value="" style="endArrow=none;html=1;rounded=0;" edge="1" parent="1">
          <mxGeometry width="50" height="50" relative="1" as="geometry">
            <mxPoint x="160" y="720" as="sourcePoint" />
            <mxPoint x="641.6666666666666" y="720" as="targetPoint" />
          </mxGeometry>
        </mxCell>
        <mxCell id="2QGlYhqfYjrcrI1Q35cm-20" value="" style="edgeStyle=none;orthogonalLoop=1;jettySize=auto;html=1;rounded=0;entryX=0.336;entryY=1;entryDx=0;entryDy=0;entryPerimeter=0;" edge="1" parent="1" target="-A0RKhvLP23Imo5xxXr9-4">
          <mxGeometry width="100" relative="1" as="geometry">
            <mxPoint x="641" y="720" as="sourcePoint" />
            <mxPoint x="690" y="710" as="targetPoint" />
            <Array as="points" />
          </mxGeometry>
        </mxCell>
        <mxCell id="2QGlYhqfYjrcrI1Q35cm-21" value="" style="endArrow=none;html=1;rounded=0;" edge="1" parent="1">
          <mxGeometry width="50" height="50" relative="1" as="geometry">
            <mxPoint x="240" y="720" as="sourcePoint" />
            <mxPoint x="240" y="840" as="targetPoint" />
          </mxGeometry>
        </mxCell>
        <mxCell id="2QGlYhqfYjrcrI1Q35cm-22" value="Ljudski resursi&lt;br&gt;(Zaposleni u menadžmentu)" style="text;html=1;align=center;verticalAlign=middle;resizable=0;points=[];autosize=1;strokeColor=none;fillColor=none;" vertex="1" parent="1">
          <mxGeometry x="70" y="795" width="170" height="40" as="geometry" />
        </mxCell>
        <mxCell id="2QGlYhqfYjrcrI1Q35cm-23" value="" style="endArrow=classic;html=1;rounded=0;entryX=0;entryY=0.5;entryDx=0;entryDy=0;exitX=0.014;exitY=0.733;exitDx=0;exitDy=0;exitPerimeter=0;" edge="1" parent="1" source="2QGlYhqfYjrcrI1Q35cm-24" target="-A0RKhvLP23Imo5xxXr9-3">
          <mxGeometry width="50" height="50" relative="1" as="geometry">
            <mxPoint y="360" as="sourcePoint" />
            <mxPoint x="360" y="430" as="targetPoint" />
          </mxGeometry>
        </mxCell>
        <mxCell id="2QGlYhqfYjrcrI1Q35cm-24" value="Adresa trans. od tačke A do tačke B" style="text;html=1;align=center;verticalAlign=middle;resizable=0;points=[];autosize=1;strokeColor=none;fillColor=none;" vertex="1" parent="1">
          <mxGeometry x="-50" y="338" width="210" height="30" as="geometry" />
        </mxCell>
        <mxCell id="2QGlYhqfYjrcrI1Q35cm-28" value="" style="endArrow=classic;html=1;rounded=0;entryX=0.317;entryY=1;entryDx=0;entryDy=0;entryPerimeter=0;" edge="1" parent="1" target="-A0RKhvLP23Imo5xxXr9-3">
          <mxGeometry width="50" height="50" relative="1" as="geometry">
            <mxPoint x="318" y="840" as="sourcePoint" />
            <mxPoint x="360" y="500" as="targetPoint" />
          </mxGeometry>
        </mxCell>
        <mxCell id="2QGlYhqfYjrcrI1Q35cm-29" value="Plan &lt;br&gt;rada" style="text;html=1;align=center;verticalAlign=middle;resizable=0;points=[];autosize=1;strokeColor=none;fillColor=none;" vertex="1" parent="1">
          <mxGeometry x="315" y="795" width="50" height="40" as="geometry" />
        </mxCell>
        <mxCell id="2QGlYhqfYjrcrI1Q35cm-32" value="" style="endArrow=classic;html=1;rounded=0;entryX=0;entryY=0.25;entryDx=0;entryDy=0;" edge="1" parent="1" target="-A0RKhvLP23Imo5xxXr9-5">
          <mxGeometry width="50" height="50" relative="1" as="geometry">
            <mxPoint y="460" as="sourcePoint" />
            <mxPoint x="350" y="390" as="targetPoint" />
          </mxGeometry>
        </mxCell>
        <mxCell id="2QGlYhqfYjrcrI1Q35cm-33" value="Lični podaci" style="text;html=1;align=center;verticalAlign=middle;resizable=0;points=[];autosize=1;strokeColor=none;fillColor=none;" vertex="1" parent="1">
          <mxGeometry x="10" y="428" width="90" height="30" as="geometry" />
        </mxCell>
        <mxCell id="2QGlYhqfYjrcrI1Q35cm-35" value="" style="endArrow=classic;html=1;rounded=0;entryX=0;entryY=0.5;entryDx=0;entryDy=0;" edge="1" parent="1" target="-A0RKhvLP23Imo5xxXr9-4">
          <mxGeometry width="50" height="50" relative="1" as="geometry">
            <mxPoint y="600" as="sourcePoint" />
            <mxPoint x="360" y="530" as="targetPoint" />
          </mxGeometry>
        </mxCell>
        <mxCell id="2QGlYhqfYjrcrI1Q35cm-36" value="Uplata klijenata" style="text;html=1;align=center;verticalAlign=middle;resizable=0;points=[];autosize=1;strokeColor=none;fillColor=none;" vertex="1" parent="1">
          <mxGeometry x="-15" y="568" width="110" height="30" as="geometry" />
        </mxCell>
        <mxCell id="2QGlYhqfYjrcrI1Q35cm-37" value="" style="endArrow=classic;html=1;rounded=0;" edge="1" parent="1">
          <mxGeometry width="50" height="50" relative="1" as="geometry">
            <mxPoint x="540" y="840" as="sourcePoint" />
            <mxPoint x="540" y="520" as="targetPoint" />
          </mxGeometry>
        </mxCell>
        <mxCell id="2QGlYhqfYjrcrI1Q35cm-39" value="Neophodne licence&lt;br&gt;za vozača" style="text;html=1;align=center;verticalAlign=middle;resizable=0;points=[];autosize=1;strokeColor=none;fillColor=none;" vertex="1" parent="1">
          <mxGeometry x="530" y="795" width="130" height="40" as="geometry" />
        </mxCell>
        <mxCell id="2QGlYhqfYjrcrI1Q35cm-40" value="" style="endArrow=classic;html=1;rounded=0;exitX=1;exitY=0.25;exitDx=0;exitDy=0;" edge="1" parent="1" source="-A0RKhvLP23Imo5xxXr9-4">
          <mxGeometry width="50" height="50" relative="1" as="geometry">
            <mxPoint x="590" y="480" as="sourcePoint" />
            <mxPoint x="880" y="580" as="targetPoint" />
          </mxGeometry>
        </mxCell>
        <mxCell id="2QGlYhqfYjrcrI1Q35cm-41" value="Potvrda o dostavljenoj robi" style="text;html=1;align=center;verticalAlign=middle;resizable=0;points=[];autosize=1;strokeColor=none;fillColor=none;" vertex="1" parent="1">
          <mxGeometry x="720" y="550" width="160" height="30" as="geometry" />
        </mxCell>
        <mxCell id="2QGlYhqfYjrcrI1Q35cm-42" value="" style="endArrow=classic;html=1;rounded=0;exitX=1;exitY=0.75;exitDx=0;exitDy=0;" edge="1" parent="1" source="-A0RKhvLP23Imo5xxXr9-4">
          <mxGeometry width="50" height="50" relative="1" as="geometry">
            <mxPoint x="800" y="480" as="sourcePoint" />
            <mxPoint x="880" y="620" as="targetPoint" />
          </mxGeometry>
        </mxCell>
        <mxCell id="2QGlYhqfYjrcrI1Q35cm-43" value="Faktura klijentima" style="text;html=1;align=center;verticalAlign=middle;resizable=0;points=[];autosize=1;strokeColor=none;fillColor=none;" vertex="1" parent="1">
          <mxGeometry x="730" y="598" width="120" height="30" as="geometry" />
        </mxCell>
        <mxCell id="2QGlYhqfYjrcrI1Q35cm-44" value="1" style="text;html=1;strokeColor=none;fillColor=none;align=center;verticalAlign=middle;whiteSpace=wrap;rounded=0;" vertex="1" parent="1">
          <mxGeometry x="200" y="255" width="60" height="30" as="geometry" />
        </mxCell>
        <mxCell id="2QGlYhqfYjrcrI1Q35cm-45" value="2" style="text;html=1;strokeColor=none;fillColor=none;align=center;verticalAlign=middle;whiteSpace=wrap;rounded=0;" vertex="1" parent="1">
          <mxGeometry x="360" y="380" width="60" height="20" as="geometry" />
        </mxCell>
        <mxCell id="2QGlYhqfYjrcrI1Q35cm-46" value="3" style="text;html=1;strokeColor=none;fillColor=none;align=center;verticalAlign=middle;whiteSpace=wrap;rounded=0;" vertex="1" parent="1">
          <mxGeometry x="520" y="500" width="60" height="20" as="geometry" />
        </mxCell>
        <mxCell id="2QGlYhqfYjrcrI1Q35cm-47" value="4" style="text;html=1;strokeColor=none;fillColor=none;align=center;verticalAlign=middle;whiteSpace=wrap;rounded=0;" vertex="1" parent="1">
          <mxGeometry x="680" y="620" width="60" height="20" as="geometry" />
        </mxCell>
        <mxCell id="2QGlYhqfYjrcrI1Q35cm-48" value="" style="endArrow=classic;html=1;rounded=0;exitX=1;exitY=0.25;exitDx=0;exitDy=0;" edge="1" parent="1" source="-A0RKhvLP23Imo5xxXr9-3">
          <mxGeometry width="50" height="50" relative="1" as="geometry">
            <mxPoint x="460" y="380" as="sourcePoint" />
            <mxPoint x="850" y="340" as="targetPoint" />
          </mxGeometry>
        </mxCell>
        <mxCell id="2QGlYhqfYjrcrI1Q35cm-49" value="Izveštaji o eventualnim &lt;br&gt;problemima" style="text;html=1;align=center;verticalAlign=middle;resizable=0;points=[];autosize=1;strokeColor=none;fillColor=none;" vertex="1" parent="1">
          <mxGeometry x="710" y="303" width="140" height="40" as="geometry" />
        </mxCell>
        <mxCell id="2QGlYhqfYjrcrI1Q35cm-50" value="" style="endArrow=classic;html=1;rounded=0;exitX=1;exitY=0.25;exitDx=0;exitDy=0;" edge="1" parent="1">
          <mxGeometry width="50" height="50" relative="1" as="geometry">
            <mxPoint x="560" y="458" as="sourcePoint" />
            <mxPoint x="850" y="458" as="targetPoint" />
          </mxGeometry>
        </mxCell>
        <mxCell id="2QGlYhqfYjrcrI1Q35cm-51" value="Izveštaji o rutama i vozilu&amp;nbsp;" style="text;html=1;align=center;verticalAlign=middle;resizable=0;points=[];autosize=1;strokeColor=none;fillColor=none;" vertex="1" parent="1">
          <mxGeometry x="690" y="428" width="160" height="30" as="geometry" />
        </mxCell>
        <mxCell id="2QGlYhqfYjrcrI1Q35cm-53" value="" style="endArrow=classic;html=1;rounded=0;entryX=0;entryY=0.75;entryDx=0;entryDy=0;exitX=0.667;exitY=0.029;exitDx=0;exitDy=0;exitPerimeter=0;" edge="1" parent="1" source="2QGlYhqfYjrcrI1Q35cm-45">
          <mxGeometry width="50" height="50" relative="1" as="geometry">
            <mxPoint x="570" y="380" as="sourcePoint" />
            <mxPoint x="850" y="380" as="targetPoint" />
          </mxGeometry>
        </mxCell>
        <mxCell id="2QGlYhqfYjrcrI1Q35cm-54" value="Dokumentacija o otpremi" style="text;html=1;align=center;verticalAlign=middle;resizable=0;points=[];autosize=1;strokeColor=none;fillColor=none;" vertex="1" parent="1">
          <mxGeometry x="690" y="350" width="160" height="30" as="geometry" />
        </mxCell>
        <mxCell id="2QGlYhqfYjrcrI1Q35cm-55" value="" style="endArrow=classic;html=1;rounded=0;entryX=0;entryY=0.625;entryDx=0;entryDy=0;entryPerimeter=0;" edge="1" parent="1" target="-A0RKhvLP23Imo5xxXr9-5">
          <mxGeometry width="50" height="50" relative="1" as="geometry">
            <mxPoint y="490" as="sourcePoint" />
            <mxPoint x="300" y="470" as="targetPoint" />
          </mxGeometry>
        </mxCell>
        <mxCell id="2QGlYhqfYjrcrI1Q35cm-56" value="Lekarsko uverenje" style="text;html=1;align=center;verticalAlign=middle;resizable=0;points=[];autosize=1;strokeColor=none;fillColor=none;" vertex="1" parent="1">
          <mxGeometry y="465" width="120" height="30" as="geometry" />
        </mxCell>
        <mxCell id="2QGlYhqfYjrcrI1Q35cm-57" value="" style="endArrow=classic;html=1;rounded=0;exitX=1;exitY=0.75;exitDx=0;exitDy=0;" edge="1" parent="1" source="-A0RKhvLP23Imo5xxXr9-5">
          <mxGeometry width="50" height="50" relative="1" as="geometry">
            <mxPoint x="700" y="520" as="sourcePoint" />
            <mxPoint x="850" y="500" as="targetPoint" />
          </mxGeometry>
        </mxCell>
        <mxCell id="2QGlYhqfYjrcrI1Q35cm-58" value="Dokumentacija o radnom vremenu" style="text;html=1;align=center;verticalAlign=middle;resizable=0;points=[];autosize=1;strokeColor=none;fillColor=none;" vertex="1" parent="1">
          <mxGeometry x="680" y="470" width="210" height="30" as="geometry" />
        </mxCell>
        <mxCell id="2QGlYhqfYjrcrI1Q35cm-59" value="" style="endArrow=classic;html=1;rounded=0;entryX=0.25;entryY=1;entryDx=0;entryDy=0;" edge="1" parent="1">
          <mxGeometry width="50" height="50" relative="1" as="geometry">
            <mxPoint x="460" y="840" as="sourcePoint" />
            <mxPoint x="460" y="520" as="targetPoint" />
          </mxGeometry>
        </mxCell>
        <mxCell id="2QGlYhqfYjrcrI1Q35cm-60" value="Ljudski&lt;br&gt;&amp;nbsp;resursi" style="text;html=1;align=center;verticalAlign=middle;resizable=0;points=[];autosize=1;strokeColor=none;fillColor=none;" vertex="1" parent="1">
          <mxGeometry x="460" y="795" width="60" height="40" as="geometry" />
        </mxCell>
        <mxCell id="2QGlYhqfYjrcrI1Q35cm-61" value="" style="endArrow=classic;html=1;rounded=0;entryX=0.5;entryY=0;entryDx=0;entryDy=0;" edge="1" parent="1" target="-A0RKhvLP23Imo5xxXr9-3">
          <mxGeometry width="50" height="50" relative="1" as="geometry">
            <mxPoint x="340" y="80" as="sourcePoint" />
            <mxPoint x="430" y="200" as="targetPoint" />
          </mxGeometry>
        </mxCell>
        <mxCell id="2QGlYhqfYjrcrI1Q35cm-62" value="" style="endArrow=classic;html=1;rounded=0;" edge="1" parent="1">
          <mxGeometry width="50" height="50" relative="1" as="geometry">
            <mxPoint x="370" y="840" as="sourcePoint" />
            <mxPoint x="370" y="400" as="targetPoint" />
          </mxGeometry>
        </mxCell>
        <mxCell id="2QGlYhqfYjrcrI1Q35cm-63" value="Oprema" style="text;html=1;align=center;verticalAlign=middle;resizable=0;points=[];autosize=1;strokeColor=none;fillColor=none;" vertex="1" parent="1">
          <mxGeometry x="365" y="800" width="70" height="30" as="geometry" />
        </mxCell>
      </root>
    </mxGraphModel>
  </diagram>
</mxfile>
